<svg version="1.2" xmlns="http://www.w3.org/2000/svg" viewBox="0 0 638 638" width="638" height="638">
	<title>logo-svg</title>
	<style>
		tspan { white-space:pre } 
		.s0 { fill: #ff5e17 } 
		.s1 { fill: #ffffff } 
	</style>
	<g id="WorkSpaceDrawType">
	</g>
	<g id="l8r95uQTcq">
		<g id="Layer">
			<g id="s-gH_vlKT7">
				<path id="Layer" class="s0" d="m159.5-0.4h318.9q159.4 0 159.4 159.4v318.9q0 159.4-159.4 159.4h-318.9q-159.5 0-159.5-159.4v-318.9q0-159.4 159.5-159.4z"/>
			</g>
			<g id="7Zka8k4gB9">
				<path id="Layer" class="s1" d="m310.1 193.1l-89.9 252.4q-13 36.7-24.4 59.2-11.5 22.5-26.2 32.6-14.7 10.2-37.6 10.2-9.5 0-19-1.5-9.5-1.5-20.3-5.4l6.1-37.2q7.7 2.2 15.1 3.7 7.3 1.5 15.1 1.5 14.7 0 24.6-10.8 9.9-10.8 15.1-27.7l-28.5-277h42.8l11.7 162.5q0.8 13 1.5 25.9 0.6 13 1.1 26 4.3-13 8.4-26 4.1-12.9 8.4-25.9l52.8-162.5zm3 38l5.6-38h28.9l2.2-15.1q4.7-34.6 15.1-53.8 10.4-19.2 24.9-27 14.5-7.8 31.7-7.8 14.3 0 23.8 3l-5.6 38.5q-3.5-0.9-8-1.7-4.6-0.9-8.4-0.9-18.2 0-24.2 17.1-6.1 17-10.4 47.7h48.4l-5.6 38h-48l-30.2 225.6h-42l31.1-225.6zm113.7 149.2l23.3-149.2h-28l5.6-38h28.5l11.2-72.6h39.8l-10.8 72.6h48.8l-5.6 38h-49.3l-21.6 144.4q-3.4 23.7-0.2 35.2 3.2 11.5 15.3 11.5 10.4 0 22.1-8.2l13.4 35.4q-13.4 6-27.9 9.5-14.5 3.5-27.9 1.7-13.4-1.7-23.1-10.1-9.7-8.5-13.8-25.5-4.1-17.1 0.2-44.7z"/>
			</g>
		</g>
		<text id="" style="transform: matrix(1,0,0,1,375,205)" >
		</text>
	</g>
</svg>